<?xml version="1.0" encoding="UTF-8" standalone="no"?>
<!-- Created with Inkscape (http://www.inkscape.org/) -->

<svg
   xmlns:dc="http://purl.org/dc/elements/1.1/"
   xmlns:cc="http://creativecommons.org/ns#"
   xmlns:rdf="http://www.w3.org/1999/02/22-rdf-syntax-ns#"
   xmlns:svg="http://www.w3.org/2000/svg"
   xmlns="http://www.w3.org/2000/svg"
   xmlns:sodipodi="http://sodipodi.sourceforge.net/DTD/sodipodi-0.dtd"
   xmlns:inkscape="http://www.inkscape.org/namespaces/inkscape"
   width="100mm"
   height="100mm"
   viewBox="0 0 100 100"
   version="1.1"
   id="svg846"
   inkscape:version="0.92.5 (2060ec1f9f, 2020-04-08)"
   sodipodi:docname="reload.svg">
  <defs
     id="defs840">
    <inkscape:path-effect
       effect="powerstroke"
       id="path-effect819"
       is_visible="true"
       offset_points="0.22961837,0.1632324 | 2,2.51 | 3.8155357,2.2180368"
       sort_points="true"
       interpolator_type="CubicBezierFit"
       interpolator_beta="1"
       start_linecap_type="round"
       linejoin_type="spiro"
       miter_limit="3.3"
       end_linecap_type="round" />
  </defs>
  <sodipodi:namedview
     id="base"
     pagecolor="#ffffff"
     bordercolor="#666666"
     borderopacity="1.0"
     inkscape:pageopacity="0.0"
     inkscape:pageshadow="2"
     inkscape:zoom="2.8"
     inkscape:cx="163.95393"
     inkscape:cy="187.94648"
     inkscape:document-units="mm"
     inkscape:current-layer="layer1"
     showgrid="false" />
  <metadata
     id="metadata843">
    <rdf:RDF>
      <cc:Work
         rdf:about="">
        <dc:format>image/svg+xml</dc:format>
        <dc:type
           rdf:resource="http://purl.org/dc/dcmitype/StillImage" />
        <dc:title></dc:title>
      </cc:Work>
    </rdf:RDF>
  </metadata>
  <g
     inkscape:label="Layer 1"
     inkscape:groupmode="layer"
     id="layer1"
     transform="translate(0,-197)">
    <path
       style="fill:none;fill-opacity:1;stroke:#ffffff;stroke-width:2.988;stroke-linecap:butt;stroke-linejoin:round;stroke-miterlimit:4;stroke-dasharray:none;stroke-opacity:1"
       d="m 35.511325,232.50838 v 60.34839 H 95.173942 V 252.39592 L 77.904826,232.44604 Z"
       id="path1391"
       inkscape:connector-curvature="0"
       sodipodi:nodetypes="cccccc" />
    <path
       style="fill:none;stroke:#ffffff;stroke-width:2.98805237;stroke-linecap:round;stroke-linejoin:miter;stroke-miterlimit:4;stroke-dasharray:none;stroke-opacity:1"
       d="m 41.87035,241.42349 35.785102,-10e-6"
       id="path1393"
       inkscape:connector-curvature="0"
       sodipodi:nodetypes="cc" />
    <path
       style="fill:#909090;fill-opacity:1;stroke:#ffffff;stroke-width:2.98805285;stroke-linecap:round;stroke-linejoin:round;stroke-miterlimit:4;stroke-dasharray:none;stroke-dashoffset:0;stroke-opacity:1;paint-order:normal"
       id="path1395"
       sodipodi:type="arc"
       sodipodi:cx="63.565849"
       sodipodi:cy="269.22864"
       sodipodi:rx="14.588351"
       sodipodi:ry="14.588351"
       sodipodi:start="0"
       sodipodi:end="6.2825883"
       sodipodi:open="true"
       d="m 78.154201,269.22864 a 14.588351,14.588351 0 0 1 -14.586174,14.58835 14.588351,14.588351 0 0 1 -14.590528,-14.584 14.588351,14.588351 0 0 1 14.581818,-14.5927 14.588351,14.588351 0 0 1 14.594881,14.57964" />
    <g
       transform="matrix(0.55592429,0,0,0.55592429,0.52141932,90.265073)"
       id="g1399">
      <path
         inkscape:path-effect="#path-effect819"
         d="m 92.797373,247.57962 c 0,4.79379 -0.723868,9.44655 -2.314175,13.74612 -1.868983,5.053 -4.693305,9.6291 -8.243059,13.50986 -6.571591,7.18438 -15.591864,11.95517 -25.697502,13.09462 -10.103109,1.13916 -19.751386,-1.55504 -27.471431,-6.84968 -7.72575,-5.29855 -13.563024,-13.21849 -16.158263,-22.7201 -2.595286,-9.50179 -1.552089,-19.21667 2.365513,-27.56652 3.918128,-8.35096 10.730944,-15.37232 19.733284,-19.40174 9.004035,-4.03018 18.824948,-4.45911 27.731951,-1.74569 5.619824,1.71202 10.863697,4.6728 15.279717,8.7537 2.581484,2.38557 4.868671,5.16116 6.793564,8.28238 a 2.2180368,2.2180368 90 0 0 3.775783,-2.32856 c -2.137081,-3.46529 -4.692978,-6.53778 -7.550299,-9.20409 -4.88728,-4.56056 -10.689882,-7.91178 -16.9319,-9.89321 -9.889496,-3.13928 -20.911638,-2.8459 -31.107125,1.57055 -10.197029,4.41712 -18.000048,12.27418 -22.467209,21.73404 -4.4677633,9.46113 -5.5798596,20.49178 -2.4528656,31.16863 3.1279036,10.67995 10.0143086,19.28453 18.7739336,24.74332 8.767679,5.4638 19.368672,7.76123 30.040518,6.0115 10.670216,-1.74946 19.768256,-7.30395 26.124367,-14.96832 3.440143,-4.14822 6.087128,-8.92346 7.769381,-14.08347 1.425073,-4.37116 2.332282,-9.01501 2.332282,-13.85334 a 0.1632324,0.1632324 90 0 0 -0.326465,0 z"
         sodipodi:open="true"
         sodipodi:end="5.730569"
         sodipodi:start="0"
         sodipodi:ry="42.028313"
         sodipodi:rx="42.028313"
         sodipodi:cy="247.57962"
         sodipodi:cx="50.932293"
         sodipodi:type="arc"
         id="path815"
         style="fill:#909090;fill-opacity:1;fill-rule:nonzero;stroke:none;stroke-width:5.01999998;stroke-linecap:round;stroke-linejoin:round;stroke-miterlimit:4;stroke-dasharray:none;stroke-dashoffset:0;stroke-opacity:1;paint-order:normal" />
      <path
         inkscape:connector-curvature="0"
         id="path817"
         d="m 66.080833,226.34469 20.62403,-0.8264 2.02968,-18.74783"
         style="fill:none;stroke:#909090;stroke-width:5.01999998;stroke-linecap:round;stroke-linejoin:miter;stroke-miterlimit:4;stroke-dasharray:none;stroke-opacity:1" />
    </g>
    <path
       style="fill:#909090;stroke:#ffffff;stroke-width:2.98799992;stroke-linecap:round;stroke-linejoin:round;stroke-miterlimit:4;stroke-dasharray:none;stroke-opacity:1;fill-opacity:1"
       d="m 61.131638,227.01831 0.04936,-9.10275 -8.342543,0.23838 11.202857,-16.2084 12.227253,15.82831 h -7.936798 l -0.238374,9.19935 z"
       id="path1437"
       inkscape:connector-curvature="0"
       sodipodi:nodetypes="cccccccc" />
  </g>
</svg>
